<svg width="27" height="26" viewBox="0 0 27 26" fill="none" xmlns="http://www.w3.org/2000/svg">
<path fill-rule="evenodd" clip-rule="evenodd" d="M2.67172 0.628609C2.82358 0.248951 3.19129 0 3.6002 0H22.8002C23.2091 0 23.5768 0.248951 23.7287 0.628609L26.1287 6.62861C26.1759 6.74673 26.2002 6.87278 26.2002 7V25C26.2002 25.5523 25.7525 26 25.2002 26H1.2002C0.647911 26 0.200195 25.5523 0.200195 25V7C0.200195 6.87278 0.22447 6.74673 0.271719 6.62861L2.67172 0.628609ZM4.27723 2L2.67723 6H23.7232L22.1232 2H4.27723ZM24.2002 8H17.8002V14.2C17.8002 14.5828 17.5816 14.932 17.2373 15.0994C16.893 15.2667 16.4834 15.2228 16.1824 14.9863L13.2002 12.6432L10.218 14.9863C9.917 15.2228 9.50737 15.2667 9.16306 15.0994C8.81875 14.932 8.6002 14.5828 8.6002 14.2V8H2.2002V24H24.2002V8ZM10.6002 8V12.1425L12.5824 10.5851C12.945 10.3002 13.4554 10.3002 13.818 10.5851L15.8002 12.1425V8H10.6002Z" fill="black"/>
</svg>
