<svg width="80" height="80" viewBox="0 0 80 80" fill="none" xmlns="http://www.w3.org/2000/svg">
<path d="M0 39.9995C0 56.3785 9.84934 70.4493 23.9433 76.6357C23.8308 73.8427 23.9233 70.4896 24.6396 67.4507C25.4087 64.2036 29.7864 45.655 29.7864 45.655C29.7864 45.655 28.5086 43.101 28.5086 39.3264C28.5086 33.3988 31.9443 28.9717 36.223 28.9717C39.8614 28.9717 41.6192 31.7044 41.6192 34.9769C41.6192 38.6343 39.2864 44.105 38.0867 49.1721C37.0845 53.4151 40.2142 56.8759 44.4001 56.8759C51.9789 56.8759 57.0832 47.1422 57.0832 35.6093C57.0832 26.8427 51.1786 20.281 40.4389 20.281C28.3052 20.281 20.7462 29.3295 20.7462 39.4367C20.7462 42.9216 21.7737 45.3791 23.383 47.2822C24.123 48.1562 24.2258 48.5077 23.958 49.5115C23.7662 50.2474 23.3255 52.0192 23.143 52.7214C22.8768 53.7345 22.0559 54.0967 21.1402 53.7226C15.5515 51.4411 12.9487 45.3209 12.9487 38.4411C12.9487 27.0786 22.5318 13.454 41.5367 13.454C56.8085 13.454 66.8601 24.505 66.8601 36.3674C66.8601 52.0586 58.1363 63.7811 45.277 63.7811C40.9586 63.7811 36.8964 61.4468 35.5049 58.7953C35.5049 58.7953 33.1827 68.0113 32.6908 69.7909C31.8427 72.8749 30.1827 75.9573 28.6649 78.3597C32.2624 79.4216 36.0627 80 40.0014 80C62.0901 80 80 62.0914 80 39.9995C80 17.9086 62.0901 0 40.0014 0C17.9106 0 0 17.9086 0 39.9995Z" fill="#CB1F27"/>
</svg>
