<svg width="20" height="38" viewBox="0 0 20 38" fill="none" xmlns="http://www.w3.org/2000/svg">
<path d="M12.9972 38V20.8362H18.8762L19.7642 14.0034H12.9972V9.66743C12.9306 8.79058 13.175 7.91821 13.6879 7.20169C14.0542 6.88249 14.4845 6.64413 14.9503 6.50231C15.4162 6.3605 15.907 6.31846 16.3903 6.37898L20 6.35028V0.273218C18.2551 0.0697134 16.4985 -0.0181733 14.7419 0.0101414C13.5672 -0.0462033 12.3931 0.132661 11.2894 0.536109C10.1856 0.939557 9.1747 1.55936 8.31669 2.3587C7.48052 3.24277 6.83558 4.28781 6.42168 5.42929C6.00778 6.57077 5.83372 7.78445 5.91024 8.99539V14.0034H0V20.8147H5.90783V37.9785L12.9972 38Z" fill="white"/>
</svg>
