<svg width="44" height="44" viewBox="0 0 44 44" fill="none" xmlns="http://www.w3.org/2000/svg">
<path d="M43.9961 44H34.886V29.7082C34.886 26.3001 34.8252 21.9129 30.1479 21.9129C25.4029 21.9129 24.6769 25.626 24.6769 29.46V43.9989H15.567V14.6092H24.3125V18.6255C26.0932 15.5756 29.539 13.7472 33.0641 13.8783C42.2974 13.8783 44 19.9622 44 27.8773L43.9961 44ZM5.28784 10.5917C2.38761 10.5917 0 8.20131 0 5.296C0 2.39069 2.3865 0 5.28672 0C8.18667 0 10.5729 2.39014 10.5735 5.2949C10.5735 8.19965 8.18751 10.5914 5.28784 10.5917ZM9.84277 44H0.723272V14.6092H9.84277V44Z" fill="white"/>
</svg>
