<svg width="41" height="40" viewBox="0 0 41 40" fill="none" xmlns="http://www.w3.org/2000/svg">
<path fill-rule="evenodd" clip-rule="evenodd" d="M3.6001 9.00049C3.59983 7.89573 4.49534 7 5.6001 7H23.5974C24.702 7 25.5974 7.89543 25.5974 9V12H31.9146C32.7406 12 33.4816 12.5077 33.7798 13.278L34.8627 16.0755L37.5998 22.8044V28C37.5998 29.1046 36.7044 30 35.5999 30H34.4738C34.0298 31.7252 32.4637 33 30.5999 33C28.736 33 27.1699 31.7252 26.7259 30H14.4738C14.0298 31.7252 12.4637 33 10.5999 33C8.73601 33 7.16991 31.7252 6.72587 30H5.60479C4.50041 30 3.60506 29.1049 3.60479 28.0005L3.6001 9.00049ZM6.72587 28C7.16991 26.2748 8.73601 25 10.5999 25C12.4637 25 14.0298 26.2748 14.4738 28H23.5974V9L5.6001 9L5.60479 28H6.72587ZM25.5974 28H26.7259C27.1699 26.2748 28.736 25 30.5999 25C32.4637 25 34.0298 26.2748 34.4738 28H35.5999V24H29.5999C28.4953 24 27.5999 23.1046 27.5999 22V17.4444C27.5999 16.3399 28.4953 15.4444 29.5999 15.4444H32.4738L31.9146 14H25.5974V28ZM33.2604 17.4444H29.5999V22H35.1135L33.2604 17.4444ZM10.5999 27C9.49528 27 8.59985 27.8954 8.59985 29C8.59985 30.1046 9.49528 31 10.5999 31C11.7044 31 12.5999 30.1046 12.5999 29C12.5999 27.8954 11.7044 27 10.5999 27ZM30.5999 27C29.4953 27 28.5999 27.8954 28.5999 29C28.5999 30.1046 29.4953 31 30.5999 31C31.7044 31 32.5999 30.1046 32.5999 29C32.5999 27.8954 31.7044 27 30.5999 27Z" fill="black"/>
</svg>
