<svg width="14" height="31" viewBox="0 0 14 31" fill="none" xmlns="http://www.w3.org/2000/svg">
<path fill-rule="evenodd" clip-rule="evenodd" d="M7.2998 0C7.85209 0 8.2998 0.447715 8.2998 1V3.42335C11.424 3.91068 13.7998 6.64566 13.7998 9.92308C13.7998 10.4754 13.3521 10.9231 12.7998 10.9231C12.2475 10.9231 11.7998 10.4754 11.7998 9.92308C11.7998 7.38217 9.77204 5.34615 7.2998 5.34615C4.82757 5.34615 2.7998 7.38217 2.7998 9.92308C2.7998 12.464 4.82757 14.5 7.2998 14.5C10.9027 14.5 13.7998 17.4577 13.7998 21.0769C13.7998 24.3543 11.424 27.0893 8.2998 27.5767V30C8.2998 30.5523 7.85209 31 7.2998 31C6.74752 31 6.2998 30.5523 6.2998 30V27.5767C3.17556 27.0893 0.799805 24.3543 0.799805 21.0769C0.799805 20.5246 1.24752 20.0769 1.7998 20.0769C2.35209 20.0769 2.7998 20.5246 2.7998 21.0769C2.7998 23.6178 4.82757 25.6538 7.2998 25.6538C9.77204 25.6538 11.7998 23.6178 11.7998 21.0769C11.7998 18.536 9.77204 16.5 7.2998 16.5C3.6969 16.5 0.799805 13.5423 0.799805 9.92308C0.799805 6.64566 3.17556 3.91068 6.2998 3.42335V1C6.2998 0.447715 6.74752 0 7.2998 0Z" fill="black"/>
</svg>
