<svg xmlns="http://www.w3.org/2000/svg" viewBox="0 0 448 512" width="60" height="60">
  <circle cx="224" cy="256" r="224" fill="#25D366"/>
  <path fill="#fff" d="M308.1 309.2c-4.7-2.4-27.6-13.6-31.9-15.1-4.3-1.6-7.4-2.4-10.6 2.4-3.1 4.9-12.2 15.1-15 18.2-2.7 3.1-5.4 3.5-10.1 1.2-27.5-13.8-45.5-24.6-63.5-55.6-4.8-8.3 4.8-7.7 13.8-25.6 1.5-3.1.8-5.8-.4-8.2-1.2-2.4-10.6-25.6-14.5-35.1-3.8-9.1-7.7-7.9-10.6-8-2.7-.1-5.8-.1-8.9-.1s-8.2 1.2-12.5 5.8c-4.3 4.9-16.4 16-16.4 39s16.8 45.3 19.1 48.4c2.4 3.1 33.1 50.5 80.1 70.8 11.2 4.8 19.9 7.7 26.7 9.8 11.2 3.5 21.5 3 29.6 1.8 9-1.2 27.6-11.3 31.5-22.2 3.9-10.9 3.9-20.1 2.7-22.1-.9-2.1-4.2-3.4-8.9-5.9z"/>
</svg>

